<svg width="421" height="295" viewBox="0 0 421 295" fill="none" xmlns="http://www.w3.org/2000/svg">
<g filter="url(#filter0_d)">
<path d="M392.482 162.179C361.604 231.854 210.152 217.678 210.152 217.678C210.152 217.678 153.327 62.1214 226.877 35.2002C255.069 24.8813 274.172 33.5584 287.257 44.5714C308.125 62.1359 310.396 89.3718 310.396 89.3718C310.396 89.3718 346.885 84.7065 370.238 98.5919C392.482 111.818 401.949 140.818 392.482 162.179Z" fill="#D12F2F"/>
</g>
<path d="M47.808 115.518V160.318H32.704V143.806H18.752V160.318H3.648V115.518H18.752V131.39H32.704V115.518H47.808ZM91.8855 142.782C91.8855 142.996 91.8215 144.126 91.6935 146.174H67.3735C67.8855 147.497 68.7388 148.521 69.9335 149.246C71.1282 149.929 72.6215 150.27 74.4135 150.27C75.9495 150.27 77.2295 150.078 78.2535 149.694C79.3202 149.31 80.4722 148.649 81.7095 147.71L89.2615 155.326C85.8482 159.081 80.7495 160.958 73.9655 160.958C69.7415 160.958 66.0295 160.19 62.8295 158.654C59.6295 157.076 57.1548 154.9 55.4055 152.126C53.6562 149.353 52.7815 146.238 52.7815 142.782C52.7815 139.284 53.6348 136.169 55.3415 133.438C57.0908 130.665 59.4588 128.51 62.4455 126.974C65.4748 125.438 68.8668 124.67 72.6215 124.67C76.1628 124.67 79.3842 125.374 82.2855 126.782C85.2295 128.19 87.5548 130.26 89.2615 132.99C91.0108 135.721 91.8855 138.985 91.8855 142.782ZM72.7495 134.526C71.2562 134.526 70.0188 134.932 69.0375 135.742C68.0562 136.553 67.4162 137.705 67.1175 139.198H78.3815C78.0828 137.748 77.4428 136.617 76.4615 135.806C75.4802 134.953 74.2428 134.526 72.7495 134.526ZM111.193 124.67C117.337 124.67 122.03 126.057 125.273 128.83C128.515 131.561 130.137 135.785 130.137 141.502V160.318H116.697V155.71C115.033 159.209 111.726 160.958 106.777 160.958C104.003 160.958 101.635 160.489 99.6725 159.55C97.7525 158.569 96.2805 157.268 95.2565 155.646C94.2752 153.982 93.7845 152.126 93.7845 150.078C93.7845 146.622 95.1072 143.998 97.7525 142.206C100.398 140.414 104.409 139.518 109.785 139.518H115.609C115.139 136.788 112.942 135.422 109.017 135.422C107.438 135.422 105.838 135.678 104.217 136.19C102.595 136.66 101.209 137.321 100.057 138.174L95.4485 128.638C97.4538 127.401 99.8645 126.441 102.681 125.758C105.539 125.033 108.377 124.67 111.193 124.67ZM111.128 152.254C112.153 152.254 113.07 151.977 113.881 151.422C114.691 150.868 115.289 150.036 115.673 148.926V146.494H112.089C109.145 146.494 107.673 147.476 107.673 149.438C107.673 150.249 107.971 150.932 108.569 151.486C109.209 151.998 110.062 152.254 111.128 152.254ZM150.148 129.086C152.708 126.142 156.484 124.67 161.476 124.67V137.47C160.324 137.3 159.257 137.214 158.276 137.214C153.326 137.214 150.852 139.732 150.852 144.766V160.318H136.388V125.31H150.148V129.086ZM192.305 159.102C190.129 160.34 187.163 160.958 183.409 160.958C178.502 160.958 174.726 159.785 172.081 157.438C169.435 155.049 168.113 151.486 168.113 146.75V137.79H163.312V127.23H168.113V117.438H182.577V127.23H189.745V137.79H182.577V146.622C182.577 147.689 182.854 148.521 183.409 149.118C183.963 149.716 184.689 150.014 185.585 150.014C186.822 150.014 187.91 149.694 188.849 149.054L192.305 159.102ZM213.102 161.342C209.39 161.342 205.763 160.937 202.222 160.126C198.723 159.273 195.843 158.142 193.582 156.734L198.446 145.726C200.579 146.964 202.969 147.966 205.614 148.734C208.259 149.46 210.798 149.822 213.23 149.822C215.321 149.822 216.814 149.63 217.71 149.246C218.606 148.82 219.054 148.201 219.054 147.39C219.054 146.452 218.457 145.748 217.262 145.278C216.11 144.809 214.19 144.297 211.502 143.742C208.046 143.017 205.166 142.249 202.862 141.438C200.558 140.585 198.553 139.22 196.846 137.342C195.139 135.422 194.286 132.841 194.286 129.598C194.286 126.782 195.075 124.222 196.654 121.918C198.233 119.614 200.579 117.801 203.694 116.478C206.851 115.156 210.67 114.494 215.15 114.494C218.222 114.494 221.23 114.836 224.174 115.518C227.161 116.158 229.785 117.118 232.046 118.398L227.502 129.342C223.107 127.124 218.947 126.014 215.022 126.014C211.139 126.014 209.198 126.953 209.198 128.83C209.198 129.726 209.774 130.409 210.926 130.878C212.078 131.305 213.977 131.774 216.622 132.286C220.035 132.926 222.915 133.673 225.262 134.526C227.609 135.337 229.635 136.681 231.342 138.558C233.091 140.436 233.966 142.996 233.966 146.238C233.966 149.054 233.177 151.614 231.598 153.918C230.019 156.18 227.651 157.993 224.494 159.358C221.379 160.681 217.582 161.342 213.102 161.342ZM262.333 124.67C266.642 124.67 270.098 125.972 272.701 128.574C275.346 131.177 276.669 135.102 276.669 140.35V160.318H262.205V142.846C262.205 138.836 260.775 136.83 257.917 136.83C256.295 136.83 254.973 137.406 253.949 138.558C252.967 139.668 252.477 141.438 252.477 143.87V160.318H238.013V112.83H252.477V128.126C255.165 125.822 258.45 124.67 262.333 124.67ZM298.63 124.67C304.774 124.67 309.467 126.057 312.71 128.83C315.953 131.561 317.574 135.785 317.574 141.502V160.318H304.134V155.71C302.47 159.209 299.163 160.958 294.214 160.958C291.441 160.958 289.073 160.489 287.11 159.55C285.19 158.569 283.718 157.268 282.694 155.646C281.713 153.982 281.222 152.126 281.222 150.078C281.222 146.622 282.545 143.998 285.19 142.206C287.835 140.414 291.846 139.518 297.222 139.518H303.046C302.577 136.788 300.379 135.422 296.454 135.422C294.875 135.422 293.275 135.678 291.654 136.19C290.033 136.66 288.646 137.321 287.494 138.174L282.886 128.638C284.891 127.401 287.302 126.441 290.118 125.758C292.977 125.033 295.814 124.67 298.63 124.67ZM298.566 152.254C299.59 152.254 300.507 151.977 301.318 151.422C302.129 150.868 302.726 150.036 303.11 148.926V146.494H299.526C296.582 146.494 295.11 147.476 295.11 149.438C295.11 150.249 295.409 150.932 296.006 151.486C296.646 151.998 297.499 152.254 298.566 152.254ZM337.585 129.086C340.145 126.142 343.921 124.67 348.913 124.67V137.47C347.761 137.3 346.694 137.214 345.713 137.214C340.764 137.214 338.289 139.732 338.289 144.766V160.318H323.825V125.31H337.585V129.086ZM389.948 142.782C389.948 142.996 389.884 144.126 389.756 146.174H365.436C365.948 147.497 366.801 148.521 367.996 149.246C369.191 149.929 370.684 150.27 372.476 150.27C374.012 150.27 375.292 150.078 376.316 149.694C377.383 149.31 378.535 148.649 379.772 147.71L387.324 155.326C383.911 159.081 378.812 160.958 372.028 160.958C367.804 160.958 364.092 160.19 360.892 158.654C357.692 157.076 355.217 154.9 353.468 152.126C351.719 149.353 350.844 146.238 350.844 142.782C350.844 139.284 351.697 136.169 353.404 133.438C355.153 130.665 357.521 128.51 360.508 126.974C363.537 125.438 366.929 124.67 370.684 124.67C374.225 124.67 377.447 125.374 380.348 126.782C383.292 128.19 385.617 130.26 387.324 132.99C389.073 135.721 389.948 138.985 389.948 142.782ZM370.812 134.526C369.319 134.526 368.081 134.932 367.1 135.742C366.119 136.553 365.479 137.705 365.18 139.198H376.444C376.145 137.748 375.505 136.617 374.524 135.806C373.543 134.953 372.305 134.526 370.812 134.526Z" fill="black"/>
<defs>
<filter id="filter0_d" x="122" y="0" width="298.598" height="294.231" filterUnits="userSpaceOnUse" color-interpolation-filters="sRGB">
<feFlood flood-opacity="0" result="BackgroundImageFix"/>
<feColorMatrix in="SourceAlpha" type="matrix" values="0 0 0 0 0 0 0 0 0 0 0 0 0 0 0 0 0 0 127 0"/>
<feOffset dy="4"/>
<feGaussianBlur stdDeviation="2"/>
<feColorMatrix type="matrix" values="0 0 0 0 0 0 0 0 0 0 0 0 0 0 0 0 0 0 0.25 0"/>
<feBlend mode="normal" in2="BackgroundImageFix" result="effect1_dropShadow"/>
<feBlend mode="normal" in="SourceGraphic" in2="effect1_dropShadow" result="shape"/>
</filter>
</defs>
</svg>
